<svg xmlns="http://www.w3.org/2000/svg" viewBox="0 0 3000 2550" width="3000" height="2550"><g transform="translate(1690.5 2043.0) rotate(0.0 441.0 172.5) scale(1.4995231108474005 1.4959284729388707)"><svg width="588.187" height="230.626" viewBox="0 0 588.187 230.626"><path d="M585.184 115.97c-.091 2.299-2.356 4.291-6.773 5.431l-407.714 105.28c-8.834 2.281-22.929.292-31.483-4.443L9.271 150.314c-3.92-2.17-5.996-4.54-6.245-6.69l-.023-28.967c-.091 2.299 1.99 4.904 6.268 7.272l129.943 71.924c8.554 4.735 22.65 6.724 31.483 4.443l407.714-105.28c4.141-1.069 6.39-2.887 6.731-5.004l.043 27.958z" fill="#5c79f7"/><path d="M162.178 230.633c-8.357 0-17.796-2.105-24.417-5.77L7.817 152.939c-5.946-3.292-7.509-6.695-7.772-8.971a3.008 3.008 0 0 1-.02-.343L.002 115.02a6.956 6.956 0 0 1 .002-.48 3.002 3.002 0 0 1 2.997-2.882h.059a2.998 2.998 0 0 1 2.942 2.997v.213c.062.713 1.094 2.429 4.721 4.436l129.943 71.924c7.829 4.334 21.233 6.242 29.28 4.164L577.66 90.112c3.143-.812 4.425-1.985 4.52-2.576.248-1.545 1.632-2.652 3.199-2.514a3 3 0 0 1 2.763 2.985l.042 27.958c0 .042 0 .083-.002.125-.089 2.221-1.379 6.243-9.021 8.216L171.447 229.585c-2.749.711-5.923 1.048-9.269 1.048zM6.025 143.391c.176.772 1.324 2.431 4.698 4.298l129.943 71.925c7.83 4.335 21.241 6.24 29.28 4.163L577.66 118.498c3.217-.831 4.456-2.003 4.523-2.613l-.031-20.967c-.868.372-1.859.711-2.992 1.003l-407.714 105.28c-9.615 2.486-24.414.41-33.687-4.723L7.817 124.554a28.299 28.299 0 0 1-1.808-1.088z" fill="#0b122d"/><path d="M9.776 109.225 417.49 3.945c8.834-2.281 22.929-.292 31.483 4.443l129.943 71.924c8.554 4.735 8.328 10.422-.506 12.703l-407.714 105.28c-8.834 2.281-22.929.292-31.483-4.443L9.271 121.929c-8.554-4.735-8.328-10.422.506-12.703z" fill="#fff"/><path d="M162.178 202.248c-8.357 0-17.797-2.105-24.418-5.771L7.817 124.554c-7.405-4.1-8.043-8.393-7.764-10.587.262-2.058 1.775-5.788 8.973-7.646L416.74 1.041c9.619-2.485 24.415-.409 33.687 4.722L580.37 77.688c7.405 4.099 8.044 8.392 7.765 10.585-.261 2.059-1.774 5.789-8.974 7.647L171.447 201.2c-2.749.711-5.922 1.048-9.269 1.048zM425.881 6.008c-2.802 0-5.425.27-7.642.842L10.526 112.13c-3.18.821-4.445 2.001-4.521 2.594-.064.512.656 2.331 4.719 4.58l129.943 71.924c7.829 4.334 21.233 6.242 29.28 4.164l407.714-105.28c3.18-.821 4.446-2.002 4.521-2.595.065-.512-.656-2.331-4.719-4.579L447.52 11.013c-5.671-3.14-14.271-5.005-21.639-5.005zM9.776 109.226h.01z" fill="#0b122d"/><path d="m539.443 103.078-160.921-89.07" fill="#fff"/><path d="M539.44 106.079c-.491 0-.989-.121-1.45-.376l-160.921-89.07a3.001 3.001 0 0 1 2.906-5.25l160.921 89.07a3.001 3.001 0 0 1-1.456 5.626z" fill="#0b122d"/><path d="M484.48 117.271 323.559 28.2" fill="#fff"/><path d="M484.477 120.272c-.491 0-.989-.121-1.45-.376L322.106 30.825a3.001 3.001 0 0 1 2.906-5.25l160.921 89.07a3.001 3.001 0 0 1-1.456 5.626z" fill="#0b122d"/><path d="M429.517 131.463 308.826 64.66" fill="#fff"/><path d="M429.514 134.464c-.491 0-.989-.121-1.45-.376l-120.69-66.803a3.001 3.001 0 0 1 2.906-5.25l120.69 66.803a3.001 3.001 0 0 1-1.456 5.626z" fill="#0b122d"/><path d="M374.554 145.656 253.863 78.853" fill="#fff"/><path d="M374.551 148.657c-.491 0-.989-.121-1.45-.376l-120.69-66.804a3.001 3.001 0 0 1 2.906-5.25l120.69 66.804a3.001 3.001 0 0 1-1.456 5.626z" fill="#0b122d"/><path d="M319.591 159.849 198.9 93.046" fill="#fff"/><path d="M319.588 162.85c-.491 0-.989-.121-1.45-.376l-120.69-66.803a3.001 3.001 0 0 1 2.906-5.25l120.69 66.803a3.001 3.001 0 0 1-1.456 5.626z" fill="#0b122d"/><path d="M264.628 174.041 103.707 84.97" fill="#fff"/><path d="M264.626 177.042c-.491 0-.989-.121-1.45-.376l-160.922-89.07a3.001 3.001 0 0 1 2.906-5.25l160.921 89.07a3.001 3.001 0 0 1-1.456 5.626z" fill="#0b122d"/><path d="M209.666 188.234 48.744 99.163" fill="#fff"/><path d="M209.663 191.234c-.491 0-.989-.121-1.45-.376l-160.921-89.07a3.001 3.001 0 0 1 2.906-5.25l160.921 89.07a3.001 3.001 0 0 1-1.456 5.626z" fill="#0b122d"/><path d="M554.175 66.618 114.472 180.159" fill="#fff"/><path d="M114.47 183.159a3 3 0 0 1-.748-5.905l439.703-113.54a2.997 2.997 0 0 1 3.654 2.154 2.998 2.998 0 0 1-2.154 3.654L115.222 183.063a3.002 3.002 0 0 1-.752.097z" fill="#0b122d"/><path d="M513.945 44.35 74.242 157.891" fill="#fff"/><path d="M74.24 160.892a3 3 0 0 1-.748-5.905l439.703-113.54a2.997 2.997 0 0 1 3.654 2.154 2.998 2.998 0 0 1-2.154 3.654L74.992 160.795a3.002 3.002 0 0 1-.752.097z" fill="#0b122d"/><path d="M473.715 22.083 34.012 135.623" fill="#fff"/><path d="M34.01 138.624a3 3 0 0 1-.748-5.905l439.702-113.54a3 3 0 1 1 1.5 5.808L34.762 138.527a3.002 3.002 0 0 1-.752.097z" fill="#0b122d"/></svg></g><g transform="translate(394.5 229.5) rotate(0.0 1033.5 970.5) scale(1.5010152004113086 1.5015816505329804)"><svg width="1377.068" height="1292.637" viewBox="0 0 1377.068 1292.637"><path d="M946.205 652.67c-104.981 2.603-148.907-140.101-166.019-224.049-1.92-8.272-3.577-15.418-5.002-20.812-4.233-16.019 5.322-32.436 21.341-36.669 16.019-4.227 32.436 5.322 36.668 21.341 1.66 6.281 3.412 13.841 5.441 22.594 15.563 60.848 42.932 202.815 131.967 173.402 116.796-36.868 41.816-284.693 135.644-375.987 61.022-69.019 152.023-52.906 210.203 13.932 11.256 12.157 10.524 31.137-1.635 42.392-12.158 11.257-31.139 10.525-42.395-1.635-20.085-21.697-50.98-45.931-84.113-38.18-150.576 47.842 3.982 407.366-242.099 423.671z" fill="#bfdbfb"/><path d="M943.369 655.705c-45.987 0-84.907-27.273-115.728-81.112-26.649-46.553-42.114-104.75-50.396-145.373l-.052-.217c-1.886-8.125-3.514-15.142-4.911-20.428-4.648-17.592 5.883-35.687 23.475-40.336 17.593-4.641 35.689 5.889 40.336 23.475 1.681 6.361 3.433 13.925 5.463 22.683 1.12 4.377 2.323 9.266 3.597 14.442 11.918 48.444 31.865 129.524 75.35 153.577 14.609 8.081 31.148 9.162 49.156 3.212 60.689-19.158 68.116-98.126 75.979-181.731 6.949-73.889 14.135-150.292 58.433-193.479 26.376-29.793 59.562-45.526 96.011-45.526h.489c42.273.163 85.333 21.872 118.139 59.559 5.927 6.399 9.038 14.812 8.698 23.62s-4.089 16.956-10.558 22.944-14.891 9.092-23.689 8.76c-8.808-.34-16.957-4.089-22.944-10.559-19.521-21.087-49.422-44.665-81.116-37.323-63.638 20.313-71.219 99.521-79.238 183.375-5.3 55.404-10.779 112.694-32.513 157.691-24.854 51.46-67.688 78.513-130.946 82.704a2.572 2.572 0 0 1-.124.006c-.972.024-1.944.036-2.91.036zm2.836-3.035h.01zM804.176 373.144c-2.275 0-4.586.29-6.887.897-14.393 3.804-23.009 18.608-19.206 33.002 1.42 5.374 3.059 12.432 4.955 20.604l.068.296c8.211 40.271 23.488 97.808 49.741 143.669 30.272 52.883 68.366 79.135 113.22 78.061 60.876-4.05 102.055-29.998 125.879-79.322 21.266-44.029 26.693-100.775 31.941-155.653 8.22-85.935 15.983-167.103 83.508-188.558.074-.023.149-.044.225-.062 34.535-8.08 66.374 16.783 86.998 39.063 4.899 5.293 11.566 8.361 18.773 8.639 7.184.272 14.09-2.268 19.382-7.167 5.293-4.899 8.36-11.566 8.639-18.772.277-7.206-2.268-14.089-7.167-19.38-31.733-36.453-73.151-57.41-113.697-57.567h-.464c-34.716 0-66.376 15.063-91.594 43.585-.049.056-.102.11-.155.163-42.787 41.633-49.872 116.966-56.724 189.82-8.055 85.643-15.662 166.535-80.108 186.878-19.624 6.483-37.774 5.252-53.905-3.671-45.779-25.323-66.119-107.998-78.271-157.394-1.271-5.162-2.47-10.039-3.6-14.455-2.035-8.776-3.778-16.299-5.435-22.571-3.194-12.088-14.156-20.103-26.116-20.103z" fill="#0b122d"/><path d="M1269.353 271.006c-8.194 42.093 23.283 74.748 79.498 48.995 0 0-44.2-20.872-29.305-45.434 25.637-12.958 43.04 32.72 43.04 32.72 30.008-54.063-3.539-85.79-46.139-80.865" fill="#bfdbfb"/><path d="M1311.992 332.173c-11.587 0-21.735-3.208-29.887-9.622-14.032-11.043-19.9-30.526-15.696-52.119a3 3 0 1 1 5.889 1.146c-3.765 19.34 1.289 36.633 13.519 46.257 13.29 10.458 33.062 11.072 56.116 1.869-8.385-4.848-23.517-15.162-27.474-28.312-1.897-6.308-1.049-12.493 2.522-18.382.291-.48.711-.869 1.212-1.122 6.146-3.107 12.376-3.478 18.521-1.098 12.802 4.956 21.915 20.826 26.104 29.562 10.229-20.998 10.979-39.703 2.002-53.124-9.091-13.589-27.051-20.255-48.029-17.828a3 3 0 0 1-.689-5.96c23.267-2.692 43.34 4.957 53.705 20.451 11.065 16.541 9.433 39.572-4.598 64.85a3.002 3.002 0 0 1-5.426-.386c-.1-.261-10.131-26.129-25.243-31.972-4.295-1.661-8.511-1.504-12.862.486-2.319 4.185-2.801 8.375-1.476 12.787 4.66 15.518 29.679 27.513 29.931 27.632a2.998 2.998 0 0 1 1.717 2.731 2.998 2.998 0 0 1-1.75 2.709c-13.745 6.297-26.632 9.445-38.108 9.445z" fill="#0b122d"/><path d="M399.101 919.107c-87.811-.02-130.784-67.709-203.295-93.894-29.344-10.077-59.706-10.776-95.549-2.193-38.617 8.074-52.418-47.835-13.97-58.352 188.424-46.621 223.011 126.39 350.485 88.274 73.904-24.205 109.846-92.419 136.231-170.956 29.813-93.783 38.55-192.771 47.116-273.98 1.729-16.479 16.484-28.452 32.968-26.704 16.478 1.729 28.434 16.489 26.705 32.968-.559 5.323-1.127 10.829-1.713 16.502-15.344 165.729-53.351 481.579-278.977 488.335z" fill="#bfdbfb"/><path d="M399.101 922.107c-54.886-.012-93.087-26.381-130.031-51.881-22.954-15.844-46.688-32.227-74.283-42.192-28.739-9.867-58.568-10.54-93.832-2.096-22.014 4.599-35.895-9.466-39.514-24.479-3.606-14.958 2.383-33.757 24.053-39.685 103.519-25.614 161.467 14.347 212.594 49.603 43.37 29.906 80.824 55.734 137.823 38.69 76.685-25.117 110.9-99.546 134.247-169.037 27.558-86.688 36.885-176.382 45.114-255.517.627-6.027 1.245-11.971 1.862-17.822.921-8.777 5.207-16.669 12.066-22.22 6.849-5.542 15.445-8.081 24.201-7.153 18.094 1.899 31.271 18.167 29.372 36.264a8574.56 8574.56 0 0 0-1.657 15.958l-.056.54c-8.989 97.096-23.249 209.241-60.826 304.574-21.866 55.472-49.613 99.143-82.47 129.799-38.579 35.993-85.202 55.054-138.575 56.652h-.09zM146.792 814.07c17.417 0 33.846 2.762 49.989 8.306 28.37 10.244 52.43 26.852 75.698 42.913 37.841 26.12 73.588 50.791 126.579 50.818 96.428-2.909 168.97-64.362 215.597-182.653 37.301-94.632 51.483-206.252 60.436-302.958l.059-.571c.566-5.484 1.117-10.812 1.659-15.968 1.554-14.806-9.229-28.117-24.035-29.671-7.166-.757-14.196 1.318-19.797 5.851-5.613 4.542-9.12 11-9.874 18.184-.617 5.85-1.234 11.791-1.861 17.814-8.259 79.421-17.621 169.44-45.38 256.761-23.835 70.949-58.875 146.932-138.156 172.897-59.828 17.896-100.239-9.973-143.022-39.476-50.084-34.537-106.85-73.681-207.676-48.736-17.742 4.854-22.682 20.239-19.732 32.473 2.962 12.287 14.353 23.794 32.369 20.03 16.724-4.005 32.296-6.014 47.148-6.014z" fill="#0b122d"/><path d="M86.286 764.668C53.6 736.908 8.08 744.653 3 806.277c0 0 39.845-28.314 53.964-3.297-1.259 28.698-49.607 21.499-49.607 21.499 32.438 52.642 76.329 38.094 92.899-1.459" fill="#bfdbfb"/><path d="M55.323 861.58c-18.498 0-36.326-12.494-50.52-35.527a3 3 0 0 1 2.995-4.542c.276.04 27.743 3.965 40.238-6.349 3.553-2.932 5.48-6.685 5.876-11.452-2.512-4.071-5.931-6.544-10.425-7.549-15.814-3.531-38.523 12.401-38.75 12.562A3 3 0 0 1 .01 806.03c2.375-28.813 13.812-48.871 32.201-56.479 17.226-7.125 38.168-2.331 56.017 12.829a3 3 0 0 1-3.884 4.573c-16.1-13.673-34.731-18.105-49.839-11.856-14.921 6.172-24.688 22.143-27.847 45.285 8.337-4.937 24.732-13.072 38.128-10.079 6.429 1.435 11.405 5.203 14.791 11.201.276.489.409 1.045.384 1.606-.302 6.881-3.032 12.494-8.114 16.686-10.59 8.732-28.887 8.903-38.556 8.281 13.138 18.95 28.872 28.625 44.769 27.396 16.163-1.26 31.271-14.14 39.429-33.613a3 3 0 0 1 5.534 2.319c-9.168 21.885-25.803 35.82-44.497 37.276a40.921 40.921 0 0 1-3.204.125zm624.634-456.004-3.908 46.459c-14.888 7.15-45.957 4.024-60.543 0l4.613-44.028 59.839-2.43z" fill="#0b122d"/><path d="M650.309 459.302c-13.638 0-27.697-2.195-35.6-4.375a3 3 0 0 1-2.186-3.205l4.612-44.028a3 3 0 0 1 2.862-2.685l59.838-2.431a3 3 0 0 1 3.111 3.249l-3.908 46.458a2.999 2.999 0 0 1-1.69 2.453c-6.967 3.347-16.887 4.563-27.04 4.563zm-31.55-9.527c15.204 3.667 41.04 5.59 54.45.23l3.474-41.294-53.851 2.188z" fill="#0b122d"/><path d="M629.092 1159.501c-9.334-.802-18.154-5.951-23.284-14.63-67.947-110.168-55.92-197.085 7.332-292.124 14.023-23.539 28.527-47.878 40.201-75.405 34.72-67.199 45.837-289.654 43.197-366.13 1.287-39.401 58.921-39.592 60.003.274.661 103.076-.265 350.255-91.867 471.973-52.733 81.011-63.449 138.462-7.209 230.884 12.644 20.262-4.801 47.773-28.373 45.158z" fill="#bfdbfb"/><path d="M632.152 1162.671c-1.114 0-2.233-.062-3.356-.185-10.604-.923-20.16-6.936-25.57-16.089-33.413-54.174-48.452-104.372-45.947-153.415 2.329-45.585 19.273-90.657 53.322-141.834 13.983-23.473 28.405-47.688 39.979-74.978a2.97 2.97 0 0 1 .096-.206c18.933-36.645 29.639-117.287 35.287-178.485 7.003-75.883 8.837-149.696 7.578-186.165a2.268 2.268 0 0 1 0-.202c.729-22.336 17.627-32.49 33.056-32.49h.098c15.394.043 32.237 10.319 32.847 32.781.26 40.359.864 134.729-11.358 229.461-14.111 109.36-41.378 191.556-81.049 244.315-49.905 76.69-64.694 132.966-7.105 227.603 6.432 10.308 6.203 23.458-.614 34.292-6.183 9.825-16.408 15.595-27.261 15.596zm23.907-384.054c-11.736 27.649-26.26 52.028-40.307 75.607a6.163 6.163 0 0 1-.114.185c-67.466 101.371-69.643 187.768-7.276 288.887 4.461 7.547 12.296 12.47 20.987 13.216l.074.008c9.777 1.084 19.324-3.759 24.913-12.64 5.582-8.871 5.807-19.581.585-27.949-28.024-46.051-40.001-84.648-37.71-121.495 2.099-33.757 15.542-67.436 44.949-112.613.037-.057.077-.112.117-.167 93.483-124.218 91.813-384.59 91.265-470.151-.499-18.399-14.276-26.846-26.864-26.881h-.079c-12.607 0-26.412 8.309-27.058 26.588 2.728 79.481-8.765 300.019-43.481 367.405z" fill="#0b122d"/><path d="M605.809 1144.871c-16.909 39.409 3.891 80.633 64.28 67.35 0 0-38.787-29.746-19.035-50.603 27.797-7.244 35.148 41.081 35.148 41.081 40.762-46.496 13.941-84.161-28.737-88.355" fill="#bfdbfb"/><path d="M648.478 1217.745c-17.812 0-32.06-5.696-41.198-16.745-11.881-14.366-13.462-35.792-4.228-57.312a3 3 0 0 1 5.514 2.365c-8.329 19.412-7.082 38.523 3.338 51.122 10.291 12.443 28.43 17.074 51.476 13.284-7.172-6.515-19.77-19.789-20.856-33.473-.521-6.567 1.616-12.433 6.352-17.433a2.999 2.999 0 0 1 1.422-.841c6.664-1.735 12.832-.78 18.335 2.844 11.463 7.551 17.015 24.986 19.263 34.41 14.244-18.135 18.866-36.028 13.005-50.852-5.96-15.075-22.716-25.723-43.728-27.788a3 3 0 0 1 .586-5.97c23.613 2.32 41.827 14.116 48.722 31.553 7.241 18.313.841 40.249-18.022 61.766a3.001 3.001 0 0 1-5.222-1.526c-.042-.275-4.376-27.68-17.911-36.587-3.847-2.531-8.001-3.269-12.674-2.245-3.151 3.6-4.508 7.594-4.146 12.186 1.274 16.152 23.191 33.167 23.413 33.337a3 3 0 0 1-1.182 5.309c-7.894 1.736-15.345 2.595-22.256 2.595zm243.176-658.02 10.392 12.219c6.493 23.092 7.892 48.227 5.933 74.711l-15.536-7.008c9.652-7.182 11.644-50.668-.79-79.922z" fill="#0b122d"/><path d="M907.979 649.655a3 3 0 0 1-1.233-.265l-15.535-7.008a3 3 0 0 1-.558-5.142c3.102-2.308 6.514-12.463 6.678-29.306.165-16.888-2.911-34.031-8.438-47.036a2.999 2.999 0 0 1 5.046-3.118l10.393 12.219c.28.33.485.715.603 1.132 6.201 22.052 8.176 46.828 6.037 75.744a3 3 0 0 1-2.992 2.779zm-10.684-11.111 7.981 3.6c1.561-25.852-.338-48.213-5.784-68.186 6.227 25.05 4.707 53.424-2.197 64.586zm59.293-47.901 14.013-2.166c10.119 16.683 14.455 48.524 4.106 60.46l-13.827 1.399-4.292-59.692z" fill="#0b122d"/><path d="M960.88 653.336a3 3 0 0 1-2.993-2.785l-4.292-59.692a3 3 0 0 1 2.534-3.18l14.013-2.167a3.01 3.01 0 0 1 3.023 1.409c10.984 18.109 14.898 51.189 3.808 63.981a3.005 3.005 0 0 1-1.965 1.02l-13.827 1.399c-.101.01-.201.015-.302.015zm-1.102-60.15 3.872 53.854 9.499-.961c7.915-10.864 4.557-38.461-4.122-54.323z" fill="#0b122d"/><path d="M375.227 712.006c-76.617 1.075-154.473-44.788-192.368-111.712-48.536-86.063-35.008-182.273 10.112-275.105 7.296-14.875 25.27-21.02 40.145-13.726 14.876 7.296 21.021 25.269 13.726 40.145-52.518 107.09-35.534 178.016-12.039 218.657 53.658 94.622 191.276 111.583 261.342 24.051 38.404-43.881 65.429-111.053 78.153-194.251 2.505-16.379 17.813-27.623 34.191-25.12 16.378 2.505 27.625 17.812 25.119 34.19-24.774 157.564-100.258 298.966-258.382 302.869z" fill="#bfdbfb"/><path d="M372.543 715.025c-37.139 0-74.948-10.617-109.531-30.784-35.225-20.541-63.844-49.058-82.762-82.469-44.565-79.023-41.192-172.519 10.024-277.894 8.017-16.346 27.827-23.12 44.165-15.108 16.337 8.013 23.11 27.823 15.099 44.159-51.936 105.903-35.265 175.826-12.135 215.835 25.721 45.356 72.785 74.95 125.909 79.187 51.417 4.104 98.975-16.132 130.493-55.508a2.83 2.83 0 0 1 .085-.101c38.027-43.451 64.807-110.096 77.446-192.729 2.751-17.985 19.625-30.374 37.609-27.632 8.714 1.333 16.386 5.979 21.605 13.083s7.359 15.814 6.026 24.527c-13.565 86.276-41.142 159.029-79.751 210.406-45.995 61.205-107.068 93.171-181.521 95.008h-.032c-.907.013-1.819.02-2.727.02zm2.685-3.019h.01zM219.951 311.403c-9.985 0-19.601 5.556-24.287 15.109-50.299 103.488-53.729 195.109-10.192 272.31 37.471 66.175 112.38 110.204 187.055 110.204.885 0 1.759-.006 2.645-.019 181.892-4.512 238.142-190.104 255.474-300.335 1.088-7.117-.663-14.244-4.933-20.056s-10.548-9.613-17.677-10.704c-14.716-2.242-28.521 7.894-30.771 22.608-12.807 83.733-40.06 151.411-78.818 195.723-32.783 40.92-82.202 61.943-135.614 57.689-55.111-4.395-103.948-35.119-130.639-82.187-23.849-41.252-41.146-113.18 11.955-221.458 6.555-13.367 1.013-29.575-12.354-36.13a26.839 26.839 0 0 0-11.845-2.755z" fill="#0b122d"/><path d="M192.971 325.19c-29.127-34.123-4.734-75.986 34.351-84.056 0 0-23.85 48.633 9.412 63.864 32.407 16.973 56.256-31.66 56.256-31.66 17.549 35.844-1.335 80.408-46.148 78.271" fill="#bfdbfb"/><path d="M249.938 354.683c-1.07 0-2.147-.025-3.238-.078a3 3 0 0 1-2.854-3.14c.079-1.655 1.48-2.945 3.14-2.854 17.887.856 32.602-6.097 41.458-19.568 9.077-13.806 10.547-32.104 4.209-48.932-5.176 8.592-16.666 24.762-32.327 29.886-8.354 2.733-16.735 1.957-24.915-2.307-8.378-3.856-14.124-10.009-17.078-18.287-5.536-15.516.21-34.494 3.834-43.85-17.302 5.361-31.377 18.081-36.695 33.592-5.148 15.016-1.676 30.675 9.779 44.095a3 3 0 1 1-4.563 3.895c-12.888-15.098-16.755-32.833-10.891-49.937 6.673-19.461 24.65-34.408 46.917-39.005a3 3 0 0 1 3.301 4.257c-.128.261-12.687 26.312-6.025 44.95 2.399 6.712 7.106 11.714 13.992 14.867.048.022.096.045.143.07 6.708 3.515 13.546 4.173 20.321 1.961 18.813-6.144 31.723-32.024 31.851-32.285a3 3 0 0 1 2.692-1.677h.003c1.144 0 2.189.652 2.692 1.68 9.855 20.129 9.002 43.243-2.227 60.321-9.522 14.484-24.894 22.342-43.52 22.343z" fill="#0b122d"/><path d="M1062.443 1223.82c-14.079 0-26.639-9.958-29.419-24.296-9.435-48.663-30.002-70.221-53.818-95.182-30.752-32.231-65.607-68.763-76.888-157.51-9.643-75.858-4.607-131.471.263-185.252 8.087-89.309 16.45-181.658-44.342-381.545-4.821-15.852 4.121-32.61 19.973-37.432 15.853-4.824 32.611 4.122 37.431 19.973 64.2 211.092 55.3 309.371 46.694 404.415-4.792 52.913-9.317 102.892-.497 172.274 8.793 69.172 32.884 94.421 60.778 123.657 26.496 27.771 56.528 59.247 69.311 125.181 3.154 16.266-7.476 32.008-23.741 35.161-1.928.374-3.85.555-5.743.555z" fill="#bfdbfb"/><path d="M1062.443 1226.82c-15.751 0-29.362-11.239-32.364-26.725-9.267-47.8-29.554-69.062-53.044-93.682-31.07-32.566-66.287-69.477-77.692-159.203-9.685-76.181-4.634-131.958.25-185.898 8.062-89.024 16.396-181.077-44.224-380.403-5.295-17.409 4.561-35.88 21.97-41.175 8.432-2.566 17.36-1.694 25.138 2.457 7.776 4.15 13.472 11.08 16.036 19.513 64.371 211.655 55.444 310.229 46.811 405.559-4.775 52.746-9.286 102.567-.509 171.626 8.669 68.192 32.443 93.11 59.973 121.963 26.781 28.07 57.135 59.884 70.086 126.682 3.463 17.864-8.253 35.215-26.116 38.678a33.268 33.268 0 0 1-6.313.609zM886.977 344.292c-2.64 0-5.295.392-7.893 1.182-14.244 4.333-22.308 19.445-17.976 33.688 60.961 200.447 52.572 293.093 44.459 382.688-4.855 53.623-9.876 109.069-.273 184.604 11.156 87.768 45.649 123.92 76.081 155.816 24.143 25.303 44.991 47.155 54.594 96.682 2.456 12.671 13.59 21.867 26.474 21.867 1.722 0 3.462-.168 5.171-.5 14.616-2.833 24.202-17.029 21.368-31.645-12.616-65.071-42.324-96.209-68.536-123.681-28.26-29.62-52.666-55.2-61.584-125.351-8.86-69.706-4.32-119.842.485-172.922 8.582-94.757 17.455-192.738-46.575-403.272-2.099-6.9-6.758-12.57-13.121-15.966a26.86 26.86 0 0 0-12.674-3.192z" fill="#0b122d"/><path d="M1091.927 1188.104c43.814 9.65 50.394 57.601 24.086 87.612 0 0-10.31-53.176-46.026-45.263-36.086 6.008-25.776 59.184-25.776 59.184-35.617-18.005-48.22-64.789-11.187-90.113" fill="#bfdbfb"/><g fill="#0b122d"><path d="M1044.21 1292.637c-.462 0-.925-.106-1.353-.322-20.291-10.259-33.737-29.385-35.091-49.914-1.19-18.042 7.179-34.148 23.564-45.354a3 3 0 0 1 3.387 4.953c-14.563 9.959-22.009 24.166-20.964 40.006 1.079 16.361 11.34 32.319 26.639 42.017-1.053-9.979-1.64-29.799 7.76-43.328 5.015-7.219 12.169-11.654 21.264-13.188 9.007-1.976 17.303-.537 24.651 4.285 13.778 9.039 20.642 27.65 23.392 37.297 10.516-14.587 13.88-32.633 8.728-48.331-5.028-15.317-17.424-25.874-34.904-29.725a2.999 2.999 0 1 1 1.291-5.859c19.636 4.325 33.598 16.298 39.313 33.713 6.374 19.42 1.156 41.953-13.617 58.807a3.003 3.003 0 0 1-5.201-1.405c-.055-.285-5.751-28.64-22.305-39.487-5.962-3.906-12.735-5.056-20.127-3.419a2.89 2.89 0 0 1-.157.03c-7.47 1.244-13.321 4.841-17.391 10.692-11.301 16.248-5.987 44.678-5.933 44.963a3.001 3.001 0 0 1-2.947 3.569zM696.459 407.095l.372 42.312c18.602 7.11 44.799 6.719 59.756.264l-.643-56.161-59.485 13.586z"/><path d="M728.039 457.602c-11.273 0-22.88-1.8-32.278-5.393a3 3 0 0 1-1.929-2.776l-.372-42.312a3 3 0 0 1 2.332-2.951l59.485-13.586a3.004 3.004 0 0 1 3.668 2.89l.643 56.161a3 3 0 0 1-1.812 2.789c-8.003 3.454-18.711 5.177-29.737 5.177zm-28.226-10.304c16.502 5.68 39.225 5.826 53.751.357l-.576-50.394-53.507 12.221.332 37.815zm138.821-32.223 6.383 25.713c-9.483 13.727-38.066 20.63-58.627 15.517l-6.204-27.683z"/><path d="M801.12 461.009c-5.303 0-10.545-.573-15.454-1.794a3 3 0 0 1-2.204-2.255l-6.204-27.683a3.001 3.001 0 0 1 2.25-3.579l58.448-13.547c1.6-.37 3.194.608 3.589 2.2l6.384 25.713c.208.835.047 1.72-.443 2.428-7.737 11.201-27.42 18.517-46.365 18.517zm-12.217-7.206c19.181 4.021 43.86-2.358 52.862-13.665l-5.332-21.474-52.669 12.208zm-214.604-53.736-4.476 25.014c11.114 16.608 41.272 23.517 57.322 19.28l6.464-35.223-59.31-9.07z"/><path d="M616.406 448.609c-17.655 0-39.767-7.949-49.076-21.86a2.998 2.998 0 0 1-.46-2.197l4.476-25.014a2.996 2.996 0 0 1 3.407-2.437l59.31 9.07a2.998 2.998 0 0 1 2.497 3.507l-6.464 35.223a3 3 0 0 1-2.185 2.359c-3.437.908-7.349 1.349-11.505 1.349zm-43.41-24.228c10.704 14.572 36.996 20.314 51.555 17.495l5.55-30.24-53.363-8.161-3.741 20.906zm295.508-9.306 6.123 22.396c22.853 1.467 49.829-10.398 56.327-21.667l-7.438-22.717z"/><path d="M878.734 440.6c-1.439 0-2.871-.044-4.299-.136a3 3 0 0 1-2.701-2.203l-6.123-22.396a3 3 0 0 1 1.78-3.577l55.012-21.988a3.001 3.001 0 0 1 3.964 1.852l7.438 22.717c.266.81.174 1.694-.252 2.432-6.533 11.331-31.197 23.298-54.819 23.298zm-1.789-6.027c20.564.549 43.928-9.575 50.717-19.186l-6.002-18.328-49.556 19.807z"/></g><path d="M624.545 143.447C626.196 102.852 628.576 3.222 615.817 3c-12.759-.222-23.9 168.981-25.075 193.642" fill="#fdf151"/><path d="M590.745 199.642c-.048 0-.097 0-.145-.003a3 3 0 0 1-2.854-3.139c.586-12.31 3.62-60.371 8.205-106.308 2.578-25.834 5.195-46.364 7.776-61.018C608.025 4.782 611.528-.065 615.869 0c1.095.019 2.726.387 4.278 2.033 3.237 3.43 7.646 13.535 8.561 61.479.603 31.554-.615 66.498-1.166 80.058a2.997 2.997 0 0 1-3.12 2.875 3 3 0 0 1-2.875-3.12c.573-14.087 1.827-50.308 1.108-82.307-.991-44.076-5.207-52.919-6.657-54.665-2.097 2.886-7.541 17.354-14.485 88.562-4.359 44.697-7.224 90.312-7.774 101.87a3 3 0 0 1-2.994 2.857z" fill="#0b122d"/><path d="M995.918 327.931c0-148.008-112.404-267.992-251.062-267.992S493.794 179.923 493.794 327.931s502.124 148.008 502.124 0z" fill="#fdf151"/><path d="M744.855 441.938c-66.138 0-127.827-9.93-173.702-27.959-52.571-20.662-80.359-50.417-80.359-86.047 0-72.348 26.403-140.375 74.345-191.55C613.132 85.153 676.957 56.94 744.856 56.94s131.724 28.213 179.717 79.442c47.941 51.175 74.345 119.203 74.345 191.55 0 78.33-131.698 114.006-254.062 114.006zm.001-378.999c-136.782 0-248.062 118.875-248.062 264.992 0 41.636 41.63 66.737 76.554 80.462 45.193 17.762 106.102 27.544 171.507 27.544s126.315-9.782 171.508-27.544c34.924-13.726 76.555-38.827 76.555-80.462 0-146.117-111.28-264.992-248.062-264.992z" fill="#0b122d"/><ellipse cx="612.846" cy="284.429" fill="#5c79f7" rx="62.541" ry="56.228" transform="matrix(.10982105 -.99395138 .99395138 .10982105 262.833 862.331)"/><path d="M611.573 349.901a53.91 53.91 0 0 1-7.772-.564c-32.309-4.712-54.547-37.655-49.572-73.436 2.548-18.327 12.034-34.862 26.026-45.365 12.291-9.226 27.077-13.136 41.636-11.015 32.309 4.712 54.547 37.655 49.573 73.436-2.549 18.327-12.036 34.862-26.028 45.366-10.104 7.584-21.898 11.578-33.862 11.578zm2.558-124.943c-10.677 0-21.219 3.579-30.274 10.376-12.723 9.55-21.356 24.638-23.686 41.393-4.522 32.525 15.438 62.435 44.496 66.672 12.961 1.892 26.164-1.615 37.166-9.875 12.723-9.55 21.357-24.639 23.687-41.393 4.522-32.526-15.438-62.435-44.496-66.672a47.845 47.845 0 0 0-6.893-.5zm54.361 67.586h.01z" fill="#0b122d"/><ellipse cx="605.286" cy="289.541" fill="#0b122d" rx="33.159" ry="29.812" transform="matrix(.10982105 -.99395138 .99395138 .10982105 251.022 859.367)"/><path d="M604.614 325.664c-1.441 0-2.885-.104-4.327-.314-17.894-2.61-30.22-20.789-27.476-40.525 1.402-10.086 6.633-19.194 14.35-24.986 6.819-5.119 15.029-7.287 23.125-6.107 17.894 2.609 30.22 20.789 27.476 40.525-1.402 10.086-6.633 19.194-14.35 24.986-5.604 4.207-12.15 6.421-18.797 6.421zm1.356-66.245c-5.357 0-10.653 1.8-15.208 5.219-6.448 4.84-10.825 12.499-12.009 21.014-2.291 16.48 7.757 31.626 22.4 33.761 6.5.95 13.125-.816 18.656-4.968 6.448-4.839 10.825-12.5 12.009-21.014 2.291-16.481-7.757-31.626-22.4-33.761-1.147-.167-2.3-.25-3.449-.25zm28.82 34.425h.01z" fill="#0b122d"/><ellipse cx="620.215" cy="267.867" fill="#fff" rx="16.58" ry="14.906" transform="matrix(.10982105 -.99395138 .99395138 .10982105 285.855 854.913)"/><path d="M619.882 287.428a16.48 16.48 0 0 1-2.383-.173c-9.76-1.423-16.493-11.271-15.007-21.954.755-5.436 3.584-10.352 7.76-13.486 3.732-2.801 8.234-3.985 12.679-3.338 9.76 1.423 16.493 11.271 15.007 21.953-.756 5.437-3.584 10.352-7.76 13.486-3.065 2.3-6.65 3.511-10.296 3.511zm.678-33.122c-2.356 0-4.691.796-6.706 2.309-2.907 2.182-4.882 5.649-5.419 9.514-1.032 7.427 3.422 14.241 9.931 15.19 2.849.416 5.768-.365 8.211-2.199 2.906-2.182 4.882-5.65 5.419-9.514 1.032-7.427-3.423-14.241-9.931-15.189a10.438 10.438 0 0 0-1.505-.109zm14.407 15.712h.01z" fill="#0b122d"/><path d="M875.099 152.076c1.592-40.597 7.164-140.1 19.901-139.304 12.736.796 10.348 170.349 9.552 195.025" fill="#fdf151"/><path d="m904.553 210.798-.099-.001a3 3 0 0 1-2.901-3.095c.373-11.568 1.154-57.269.374-102.166-1.243-71.536-5.517-86.391-7.376-89.435-1.585 1.625-6.493 10.104-10.995 53.96-3.27 31.843-4.907 68.046-5.459 82.133a3.006 3.006 0 0 1-3.115 2.88 3 3 0 0 1-2.881-3.115c.532-13.559 2.105-48.486 5.223-79.895 4.735-47.717 9.937-57.438 13.436-60.6 1.678-1.516 3.32-1.756 4.428-1.685 4.302.269 7.438 5.389 9.776 30.049 1.405 14.813 2.376 35.486 2.886 61.443.907 46.151.098 94.305-.3 106.624a3 3 0 0 1-2.996 2.903z" fill="#0b122d"/></svg></g><g transform="translate(1264.5 1891.5) rotate(0.0 249.0 111.75) scale(1.5079119960757954 1.5040680498260395)"><svg width="330.258" height="148.597" viewBox="0 0 330.258 148.597"><path d="m282.143 16.234 6.297 17.126-143.718 52.846-6.297-17.126z" fill="#fff"/><path d="M144.722 89.207a3.004 3.004 0 0 1-2.816-1.965l-6.297-17.125a3 3 0 0 1 1.78-3.851l143.719-52.847a3.001 3.001 0 0 1 3.851 1.78l6.297 17.125a3 3 0 0 1-1.78 3.851L145.758 89.022a2.982 2.982 0 0 1-1.035.185zm-2.446-18.345 4.227 11.494L284.59 31.58l-4.227-11.494z" fill="#0b122d"/><path d="M4.659 127.99c-5.122-13.93 2.018-29.375 15.948-34.498l89.173-32.79 32.943 6.799 6.297 17.126-20.69 26.521-89.173 32.79c-13.93 5.122-29.375-2.018-34.498-15.948z" fill="#5c79f7"/><path d="M29.865 148.605c-4.271 0-8.527-.928-12.52-2.773-7.243-3.349-12.748-9.317-15.502-16.807-5.685-15.46 2.269-32.664 17.729-38.349l89.173-32.79a3.003 3.003 0 0 1 1.642-.123l32.942 6.799a2.996 2.996 0 0 1 2.209 1.903l6.297 17.125a2.999 2.999 0 0 1-.45 2.88l-20.69 26.521a3 3 0 0 1-1.33.97l-89.172 32.791a29.886 29.886 0 0 1-10.327 1.851zm80.146-84.792L21.642 96.308c-12.355 4.543-18.711 18.291-14.168 30.646a23.719 23.719 0 0 0 12.39 13.431c5.788 2.676 12.271 2.937 18.258.737l88.368-32.495 19.138-24.531-5.146-13.994z" fill="#0b122d"/><path d="M302.377 37.525 288.44 33.36l-6.297-17.126 7.918-12.201L321.845 3l5.413 14.721z" fill="#fff"/><path d="M302.376 40.525c-.288 0-.577-.042-.859-.125l-13.937-4.165a3 3 0 0 1-1.956-1.839l-6.297-17.125a2.998 2.998 0 0 1 .299-2.668l7.918-12.202a3 3 0 0 1 2.419-1.365L321.748.001a3.006 3.006 0 0 1 2.913 1.963l5.413 14.721a3 3 0 0 1-.947 3.382l-24.882 19.804a2.998 2.998 0 0 1-1.868.653zm-11.638-9.61 10.996 3.286 21.961-17.479-3.918-10.654-28.052.912-6.248 9.627z" fill="#0b122d"/><rect fill="#5c79f7" height="17.498" rx="6.747" transform="matrix(.34511801 .9385593 -.9385593 .34511801 165.539 -81.843)" width="53.748" x="114.543" y="68.953"/><path d="M146.479 107.036a9.72 9.72 0 0 1-4.085-.905 9.685 9.685 0 0 1-5.058-5.483l-13.893-37.782c-.898-2.443-.792-5.09.301-7.454s3.04-4.16 5.483-5.058l3.758-1.381a9.683 9.683 0 0 1 7.454.3 9.687 9.687 0 0 1 5.058 5.484l13.893 37.781c1.855 5.044-.739 10.657-5.784 12.512l-3.758 1.382a9.756 9.756 0 0 1-3.369.604zm-3.512-8.46a3.725 3.725 0 0 0 1.945 2.108 3.727 3.727 0 0 0 2.865.116l3.758-1.382a3.753 3.753 0 0 0 2.224-4.811l-13.893-37.781a3.725 3.725 0 0 0-1.945-2.108 3.732 3.732 0 0 0-2.865-.116l-3.758 1.382a3.722 3.722 0 0 0-2.107 1.944 3.723 3.723 0 0 0-.116 2.865l13.893 37.781z" fill="#0b122d"/></svg></g><g transform="translate(2328.0 574.5) rotate(0.0 129.0 149.25) scale(1.5104678937754672 1.5084213877476766)"><svg width="170.808" height="197.889" viewBox="0 0 170.808 197.889"><path d="M86.971 194.889 3 115.822 109.234 3l56.999 53.671 1.575 52.369z" fill="#fff"/><path d="M86.97 197.889a3 3 0 0 1-2.057-.816L.944 118.005a3 3 0 0 1-.128-4.241L107.049.943a3.004 3.004 0 0 1 2.095-.942 3.065 3.065 0 0 1 2.146.814l56.999 53.671c.579.545.918 1.299.942 2.094l1.575 52.369a3.01 3.01 0 0 1-.814 2.147l-80.838 85.85a3.004 3.004 0 0 1-2.095.942l-.09.001zM7.241 115.694l79.602 74.955 77.93-82.761-1.5-49.885-53.911-50.762z" fill="#0b122d"/><path d="m140.836 83.643 26.972 25.397-1.575-52.369z" fill="#fff"/><path d="M167.809 112.04c-.75 0-1.489-.281-2.058-.816l-26.972-25.397a3 3 0 0 1-.128-4.241l25.396-26.972a3.002 3.002 0 0 1 5.184 1.966l1.575 52.369a2.998 2.998 0 0 1-2.998 3.09zm-22.732-28.525 19.515 18.375-1.14-37.89z" fill="#0b122d"/><path d="m72.759 83.631 42.414 39.938" fill="#fff"/><path d="M115.172 126.568a2.993 2.993 0 0 1-2.056-.816L70.702 85.814a3 3 0 1 1 4.113-4.368l42.414 39.938a3 3 0 0 1-2.058 5.184z" fill="#0b122d"/><path d="m50.365 107.413 42.415 39.938" fill="#fff"/><path d="M92.779 150.351a2.993 2.993 0 0 1-2.056-.816l-42.414-39.938a3 3 0 1 1 4.113-4.368l42.414 39.938a3 3 0 0 1-2.058 5.184z" fill="#0b122d"/></svg></g><g transform="translate(1287.0 1959.0) rotate(8.17443116750284 63.0 50.25) scale(1.492289835848118 1.502309520606305)"><svg width="84.434" height="66.897" viewBox="0 0 84.434 66.897"><defs><style>.cls-1,.cls-2{fill:#0b122d;stroke-width:0}.cls-2{fill:#bfdbfb}</style></defs><path class="cls-2" d="M4.366 3c-8.194 42.093 20.853 77.987 77.068 52.234 0 0-44.2-20.872-29.305-45.434"/><path class="cls-1" d="M46.567 66.887c-11.171 0-20.983-3.113-28.894-9.338C3.023 46.019-3.053 25.413 1.422 2.427a3 3 0 1 1 5.889 1.146c-4.036 20.734 1.225 39.149 14.072 49.26 12.688 9.985 31.396 10.68 53.12 2.099-8.387-4.851-23.507-15.16-27.461-28.305-1.898-6.309-1.05-12.493 2.521-18.382a3 3 0 0 1 5.131 3.112c-2.688 4.434-3.313 8.86-1.909 13.534 4.66 15.518 29.679 27.513 29.931 27.632a2.998 2.998 0 0 1 1.717 2.731 2.998 2.998 0 0 1-1.75 2.709c-12.989 5.951-25.201 8.924-36.116 8.925Z"/></svg></g><g transform="translate(2316.0 873.0) rotate(0.0 295.5 237.0) scale(1.5037134853330687 1.5214886193293253)"><svg width="393.027" height="311.537" viewBox="0 0 393.027 311.537"><g><g><g><rect x="3" y="264.917" width="387.027" height="43.62" rx="21.81" fill="#fff"/><path d="M368.217 311.537H24.81a24.81 24.81 0 1 1 0-49.62h343.407a24.81 24.81 0 0 1 0 49.62ZM24.81 267.917a18.81 18.81 0 1 0 0 37.62h343.407a18.81 18.81 0 0 0 0-37.62Z" fill="#0b122d"/></g><g><rect x="3" y="264.917" width="173.478" height="43.62" rx="21.81" fill="#bfdbfb"/><path d="M154.667 311.537H24.81a24.81 24.81 0 1 1 0-49.62h129.857a24.81 24.81 0 1 1 0 49.62ZM24.81 267.917a18.81 18.81 0 1 0 0 37.62h129.857a18.81 18.81 0 1 0 0-37.62Z" fill="#0b122d"/></g></g><g><g><path d="M350.8 108.677a49.316 49.316 0 0 0-48.216-22.815c.022-.524.04-1.048.04-1.577A36.907 36.907 0 0 0 244.471 54.1a73.671 73.671 0 0 0-143.8 22.569c0 .843.035 1.677.063 2.514a55.723 55.723 0 0 0-46.1 97.439h280.4a49.32 49.32 0 0 0 15.766-67.945Z" fill="#5c79f7"/><path d="M335.038 179.621H54.637a3 3 0 0 1-1.929-.7A58.72 58.72 0 0 1 97.677 75.676a76.674 76.674 0 0 1 148.381-26.132 39.912 39.912 0 0 1 59.53 33.016 52.489 52.489 0 0 1 47.76 24.53 52.319 52.319 0 0 1-16.724 72.077 2.992 2.992 0 0 1-1.586.454Zm-279.291-6h278.418a46.32 46.32 0 0 0 14.091-63.357 46.464 46.464 0 0 0-45.285-21.427 3 3 0 0 1-3.382-3.1c.02-.482.036-.965.036-1.453A33.906 33.906 0 0 0 246.2 56.551a3 3 0 0 1-4.584-1.533 70.672 70.672 0 0 0-137.945 21.65c0 .643.023 1.281.045 1.919l.017.5a3 3 0 0 1-3.548 3.047 52.723 52.723 0 0 0-44.438 91.49Z" fill="#0b122d"/></g><g><path fill="#ee83f9" d="m196.513 70.16-70.729 70.73h30.183v81.093h81.093V140.89h30.183l-70.73-70.73z"/><path d="M237.06 224.983h-81.094a3 3 0 0 1-3-3V143.89h-27.182a3 3 0 0 1-2.121-5.121l70.729-70.73a3.086 3.086 0 0 1 4.242 0l70.731 70.73a3 3 0 0 1-2.121 5.121H240.06v78.093a3 3 0 0 1-3 3Zm-78.094-6h75.094V140.89a3 3 0 0 1 3-3H260L196.513 74.4l-63.487 63.49h22.94a3 3 0 0 1 3 3Z" fill="#0b122d"/></g></g></g></svg></g><g transform="translate(109.5 978.0) rotate(0.0 219.0 368.25) scale(1.4966530327726009 1.4997953436089169)"><svg width="292.653" height="491.067" viewBox="0 0 292.653 491.067"><path d="M275.792 491.064c-1.281 0-2.585-.16-3.896-.482L19.321 428.365C8.487 425.697 0 412.836 0 399.085V21.371C0 13.625 2.778 7.006 7.622 3.21 11.354.286 16.015-.682 20.756.485l252.575 62.216c10.834 2.67 19.321 15.531 19.321 29.28v377.715c0 7.746-2.778 14.365-7.622 18.16-2.7 2.116-5.889 3.208-9.239 3.208zM16.858 6.002c-2.02 0-3.901.651-5.535 1.932C7.94 10.584 6 15.482 6 21.372v377.714c0 10.744 6.758 21.484 14.757 23.454l252.575 62.217c2.952.729 5.717.165 7.998-1.622 3.383-2.65 5.323-7.548 5.323-13.438V91.981c0-10.743-6.758-21.483-14.757-23.454L19.321 6.311a10.257 10.257 0 0 0-2.463-.309z" fill="#0b122d"/><path d="M264.4 240.05a3.004 3.004 0 0 1-2.896-2.222c-1.446-5.377-9.405-32.828-19.184-59.292-17.051-46.151-24.736-48.89-26.104-48.97h-.037c-.793 0-1.887 1.455-2.808 3.739-3.982 11.484-5.902 25.148-7.597 37.207-2.492 17.733-4.46 31.739-11.975 35.927-2.944 1.641-6.394 1.614-10.252-.083-8.808-3.875-13.984-18.598-19.464-34.185-4.396-12.503-9.378-26.674-15.075-28.812-.791-.297-2.082-.558-4.121.594-5.847 3.306-9.737 8.504-13.171 13.091-4.96 6.624-10.58 14.129-20.459 8.473-5.553-3.18-9.609-14.171-15.632-31.895-3.654-10.753-8.082-23.784-12.135-28.705-1.682 3.979-4.321 12.681-6.526 19.947-8.303 27.368-12.855 40.432-18.718 41.988-1.666.443-3.313-.005-4.639-1.258-7.141-6.75-11.695-27.558-16.101-47.68-3.063-13.994-7.259-33.16-10.748-35.157a3 3 0 0 1-1.113-4.094 2.998 2.998 0 0 1 4.094-1.113c5.531 3.166 8.629 16.242 13.629 39.081 3.69 16.859 8.255 37.706 13.795 44.013 3.843-3.843 10.435-25.573 14.06-37.521 6.006-19.797 7.559-24.151 10.362-25.29A3.426 3.426 0 0 1 84.54 98c6.106 3.374 10.407 14.979 16.766 33.691 3.987 11.733 8.949 26.337 12.934 28.618 4.757 2.726 6.773 1.022 12.673-6.861 3.6-4.809 8.079-10.793 15.021-14.718 3.13-1.769 6.219-2.103 9.183-.988 8.32 3.122 13.326 17.363 18.627 32.44 4.591 13.056 9.793 27.854 16.22 30.682 3.085 1.357 4.462.587 4.916.334 4.908-2.735 6.964-17.368 8.952-31.521 1.736-12.354 3.704-26.356 7.895-38.409.016-.043.031-.085.048-.127 2.092-5.238 5.06-7.783 8.793-7.564 5.637.331 14.298 6.641 31.382 52.88 9.855 26.676 17.889 54.384 19.35 59.813a3.002 3.002 0 0 1-2.899 3.781z" fill="#0b122d"/><path d="m250.132 327.086-207.611-51.14" fill="#fff"/><g fill="#0b122d"><path d="M250.133 330.088a2.98 2.98 0 0 1-.72-.088l-207.61-51.141a3 3 0 1 1 1.436-5.826l207.61 51.141a3 3 0 0 1-.716 5.914z"/><path d="M175.39 308.847c0-9.852 6.138-16.327 13.71-14.462s13.71 11.364 13.71 21.216-6.138 16.327-13.71 14.462-13.71-11.364-13.71-21.216z"/><path d="M191.661 333.381c-1.078 0-2.176-.134-3.278-.405-8.968-2.208-15.993-12.807-15.993-24.129 0-6.413 2.317-11.907 6.357-15.073 3.146-2.465 7.079-3.285 11.07-2.302 8.969 2.209 15.993 12.809 15.993 24.13 0 6.413-2.317 11.907-6.357 15.073-2.278 1.785-4.968 2.706-7.792 2.706zm-5.113-36.314c-1.498 0-2.893.481-4.102 1.429-2.541 1.991-4.058 5.861-4.058 10.351 0 8.396 5.233 16.777 11.428 18.303 2.194.543 4.245.126 5.935-1.197 2.541-1.991 4.059-5.86 4.059-10.351 0-8.396-5.233-16.778-11.428-18.304a7.646 7.646 0 0 0-1.834-.23z"/></g><path d="M250.132 412.276 42.521 361.135" fill="#fff"/><path d="M250.133 415.277a2.98 2.98 0 0 1-.72-.088l-207.61-51.141a3 3 0 0 1-2.195-3.631 2.997 2.997 0 0 1 3.631-2.195l207.61 51.141a3 3 0 0 1-.716 5.914z" fill="#0b122d"/><path d="M111.496 378.126c0-9.852 6.138-16.327 13.71-14.462s13.71 11.364 13.71 21.216-6.138 16.327-13.71 14.462-13.71-11.364-13.71-21.216z" fill="#0b122d"/><path d="M127.766 402.66c-1.078 0-2.176-.134-3.278-.405-8.968-2.209-15.992-12.808-15.992-24.129 0-6.414 2.317-11.908 6.358-15.074 3.147-2.467 7.078-3.284 11.069-2.301 8.968 2.209 15.992 12.809 15.992 24.13 0 6.413-2.317 11.907-6.357 15.073-2.278 1.785-4.967 2.706-7.792 2.706zm-5.112-36.314c-1.498 0-2.892.481-4.1 1.428-2.541 1.991-4.059 5.861-4.059 10.352 0 8.396 5.233 16.777 11.428 18.303 2.195.543 4.246.126 5.935-1.197 2.541-1.991 4.058-5.86 4.058-10.351 0-8.396-5.233-16.778-11.428-18.304a7.646 7.646 0 0 0-1.834-.23z" fill="#0b122d"/></svg></g><g transform="translate(639.0 372.0) rotate(-2.616876526278682 -209.25 129.0) scale(-1.4977292492028216 1.494058511500776)"><svg width="279.423" height="172.684" viewBox="0 0 279.423 172.684"><path d="M260.059 7.688c1.704 2.317 2.274 5.37 1.371 8.875l-21.142 82.106c-2.281 8.858-13.102 17.251-24.17 18.745L19.334 143.978c-7.724 1.043-13.527-1.55-15.553-6.224l15.688 27.381c2.637 3.447 7.834 5.21 14.433 4.319l196.784-26.564c11.067-1.494 21.889-9.886 24.17-18.745l21.142-82.106c.855-3.322.388-6.238-1.113-8.506L260.059 7.687z" fill="#bfdbfb"/><path d="M30.568 172.687c-5.835 0-10.634-2.006-13.481-5.728a2.85 2.85 0 0 1-.22-.332L2.287 141.18a12.275 12.275 0 0 1-1.258-2.232 3 3 0 0 1 5.356-2.684l.919 1.604c2.045 2.663 6.328 3.853 11.629 3.138l196.783-26.564c9.778-1.32 19.7-8.885 21.666-16.52l21.142-82.106c.485-1.881.43-3.593-.149-5.032l-.919-1.603a2.999 2.999 0 0 1 5.018-3.27 11.89 11.89 0 0 1 1.271 2.177l13.696 23.876c1.991 3.062 2.497 6.803 1.461 10.824l-21.142 82.105c-2.599 10.09-14.315 19.302-26.674 20.97L34.302 172.427a28.007 28.007 0 0 1-3.736.259zm-8.604-9.232c2.102 2.591 6.394 3.72 11.538 3.027l196.784-26.564c9.778-1.32 19.7-8.885 21.666-16.52l21.142-82.105c.61-2.369.365-4.479-.709-6.102a2.968 2.968 0 0 1-.101-.163l-8.634-15.051-20.456 79.441c-2.599 10.09-14.315 19.301-26.674 20.97L19.737 146.952c-2.576.348-5.01.336-7.23-.005l9.458 16.508z" fill="#0b122d"/><path d="M216.118 117.414 19.334 143.978c-11.067 1.494-18.19-4.476-15.909-13.334l21.142-82.106c2.281-8.858 13.102-17.251 24.17-18.745L245.521 3.229c11.067-1.494 18.19 4.476 15.909 13.334l-21.142 82.106c-2.281 8.858-13.102 17.251-24.17 18.745z" fill="#fff"/><g fill="#0b122d"><path d="M16.053 147.206c-5.449 0-10.054-1.756-12.957-5.024-2.87-3.229-3.785-7.592-2.576-12.286L21.662 47.79c2.598-10.091 14.314-19.302 26.673-20.97L245.119.256c7.038-.949 13.103.789 16.64 4.77 2.87 3.229 3.785 7.593 2.576 12.286l-21.142 82.106c-2.599 10.09-14.315 19.301-26.674 20.97L19.736 146.952c-1.262.17-2.493.254-3.683.254zM248.775 6.004c-.916 0-1.87.065-2.853.198L49.138 32.767c-9.778 1.319-19.7 8.885-21.666 16.52L6.33 131.392c-.705 2.737-.272 5.09 1.251 6.804 2.156 2.427 6.402 3.478 11.352 2.809l196.783-26.564.401 2.973-.401-2.973c9.778-1.32 19.7-8.885 21.666-16.52l21.142-82.106c.705-2.737.272-5.09-1.25-6.805-1.729-1.945-4.799-3.006-8.5-3.006z"/><path d="M114.655 96.96c-16.035 0-31.001-4.179-44.833-12.548a3.002 3.002 0 0 1-.109-5.064c48.243-32.108 90.407-37.677 125.321-16.553a3.002 3.002 0 0 1 .109 5.064c-29.13 19.388-56.048 29.101-80.488 29.101zM77.14 81.668c15.213 8.062 31.958 10.925 49.853 8.509 18.63-2.515 39.039-10.798 60.722-24.637-15.213-8.062-31.958-10.924-49.853-8.509-18.63 2.515-39.04 10.798-60.722 24.637z"/><path d="M153.183 70.802c2.363-9.175-5.015-15.358-16.477-13.811-11.463 1.547-22.67 10.239-25.033 19.414s5.015 15.358 16.477 13.811c11.463-1.547 22.67-10.239 25.033-19.414z"/><path d="M124.75 93.452c-5.612 0-10.353-1.807-13.338-5.167-2.948-3.317-3.887-7.802-2.645-12.627 2.681-10.412 14.776-19.917 27.537-21.639 7.254-.979 13.5.809 17.14 4.905 2.948 3.317 3.887 7.802 2.645 12.627-2.682 10.412-14.777 19.917-27.537 21.64a28.405 28.405 0 0 1-3.801.262zm15.323-33.693c-.953 0-1.945.067-2.966.206-10.166 1.372-20.483 9.244-22.529 17.189-.74 2.872-.283 5.342 1.319 7.146 2.257 2.541 6.689 3.643 11.852 2.944 10.166-1.372 20.483-9.244 22.529-17.189.739-2.872.283-5.342-1.319-7.146-1.811-2.038-5.021-3.149-8.885-3.149zm13.11 11.043h.01zm28.598 33.224a3 3 0 0 1-.397-5.974l27.163-3.667 5.507-21.388a3 3 0 0 1 5.81 1.496l-6.011 23.343a2.999 2.999 0 0 1-2.504 2.225l-29.164 3.937a3.084 3.084 0 0 1-.405.027zM47.898 76.462a3 3 0 0 1-2.907-3.748l6.011-23.343a2.999 2.999 0 0 1 2.504-2.225l29.164-3.937a3 3 0 0 1 .803 5.947L56.31 52.823l-5.507 21.388a3 3 0 0 1-2.903 2.252zm175.228-23.655a3 3 0 0 1-2.907-3.748l4.899-19.025-24.745 3.34a3.002 3.002 0 0 1-.803-5.947l29.164-3.937a3.002 3.002 0 0 1 3.307 3.721l-6.011 23.342a3 3 0 0 1-2.903 2.252zM35.72 123.744a3 3 0 0 1-2.242-1.007c-.663-.747-.912-1.774-.663-2.741l6.011-23.343a3 3 0 0 1 5.81 1.496l-4.899 19.025 24.745-3.341a3 3 0 0 1 .803 5.947l-29.164 3.937a3.016 3.016 0 0 1-.402.027z"/></g></svg></g><g transform="translate(2293.5 627.0) rotate(0.0 64.5 51.0) scale(1.5278205462254542 1.524732050764608)"><svg width="84.434" height="66.897" viewBox="0 0 84.434 66.897"><path class="cls-2" d="M4.366 3c-8.194 42.093 20.853 77.987 77.068 52.234 0 0-44.2-20.872-29.305-45.434"/><path class="cls-1" d="M46.567 66.887c-11.171 0-20.983-3.113-28.894-9.338C3.023 46.019-3.053 25.413 1.422 2.427a3 3 0 1 1 5.889 1.146c-4.036 20.734 1.225 39.149 14.072 49.26 12.688 9.985 31.396 10.68 53.12 2.099-8.387-4.851-23.507-15.16-27.461-28.305-1.898-6.309-1.05-12.493 2.521-18.382a3 3 0 0 1 5.131 3.112c-2.688 4.434-3.313 8.86-1.909 13.534 4.66 15.518 29.679 27.513 29.931 27.632a2.998 2.998 0 0 1 1.717 2.731 2.998 2.998 0 0 1-1.75 2.709c-12.989 5.951-25.201 8.924-36.116 8.925Z"/></svg></g></svg>