<?xml version="1.0" encoding="utf-8"?>
<!-- Generator: Adobe Illustrator 22.0.0, SVG Export Plug-In . SVG Version: 6.00 Build 0)  -->
<svg version="1.1" id="Layer_1" xmlns="http://www.w3.org/2000/svg" xmlns:xlink="http://www.w3.org/1999/xlink" x="0px" y="0px"
	 viewBox="0 0 500 500" style="enable-background:new 0 0 500 500;" xml:space="preserve">
<style type="text/css">
	.st0{fill:#83E1E5;}
	.st1{fill:#AAB1BA;}
	.st2{fill:#ECF4F7;}
	.st3{fill:#FDDF7F;}
	.st4{fill:#1C1D21;}
	.st5{fill:#FFFFFF;}
</style>
<g>
	<g>
		<path class="st0" d="M403.003,125.617C362.135,84.748,307.797,62.241,250,62.241c-18.615,0-37.107,2.371-54.962,7.047
			c-9.108,2.385-14.557,11.702-12.172,20.809c2.385,9.107,11.704,14.56,20.81,12.172c15.036-3.937,30.622-5.934,46.324-5.934
			c100.684,0,182.564,82.052,182.285,182.799c-0.277,99.85-81.715,181.383-181.565,181.771c-32.108,0.125-62.316-8.105-88.588-22.62
			c21.874-12.13,45.944-19.555,70.826-21.904l-0.007,4.292c-0.01,5.56,2.489,10.919,6.984,14.193
			c3.019,2.199,6.545,3.285,10.062,3.285c3.309,0,6.609-0.963,9.463-2.867l28.799-19.216c3.849-2.568,6.676-6.495,7.577-11.033
			c1.366-6.88-1.571-13.722-7.204-17.51l-28.72-19.308c-4.34-2.918-9.779-3.928-14.78-2.398c-7.316,2.238-12.1,8.908-12.113,16.292
			l0,0.03c-36.178,2.86-71.015,14.768-101.519,34.876c-11.547-9.902-21.845-21.219-30.622-33.682
			c5.273-7.529,11.129-14.701,17.506-21.396c30.794-32.326,71.232-51.744,114.575-55.787l-0.008,4.33
			c-0.01,5.56,2.489,10.919,6.984,14.193c3.019,2.199,6.545,3.285,10.062,3.285c3.309,0,6.609-0.963,9.463-2.867l28.799-19.216
			c3.849-2.568,6.676-6.495,7.577-11.033c1.366-6.88-1.571-13.722-7.204-17.51l-28.72-19.308c-4.34-2.918-9.779-3.928-14.78-2.398
			c-7.316,2.238-12.1,8.908-12.113,16.292l0,0.11c-18.894,1.522-37.589,5.471-55.374,11.802
			c-32.069,11.415-60.312,29.782-83.947,54.592c-3.833,4.024-7.507,8.196-11.017,12.493c-0.027-0.063-0.055-0.126-0.082-0.19
			c-5.353-12.381-5.321-26.47-0.041-38.882c8.531-20.055,20.675-38.584,35.827-54.489c30.794-32.325,71.233-51.74,114.575-55.784
			l-0.008,4.328c-0.01,5.56,2.489,10.919,6.984,14.193c3.019,2.199,6.545,3.285,10.062,3.285c3.309,0,6.609-0.963,9.463-2.867
			l28.799-19.216c3.849-2.568,6.676-6.495,7.577-11.033c1.366-6.88-1.571-13.722-7.204-17.51l-29.054-19.533
			c-6.953-4.676-16.582-3.742-22.55,3.123c-2.64,3.037-4.002,6.981-4.008,11.005l0,0.101c-18.894,1.522-37.589,5.471-55.374,11.802
			c-32.069,11.415-60.313,29.781-83.947,54.591c-9.573,10.049-18.127,20.989-25.573,32.611
			c2.461-37.859,16.371-73.205,39.752-102.106l3.677,3.873c3.264,3.438,7.754,5.311,12.364,5.311c1.511,0,3.034-0.202,4.531-0.615
			c6.067-1.673,10.719-6.552,12.099-12.693l8.764-38.965c1.248-5.548-0.353-11.353-4.268-15.478
			c-3.916-4.124-9.631-6.021-15.235-5.067l-39.368,6.728c-7.277,1.243-13.056,7.071-14.044,14.657
			c-0.676,5.186,1.226,10.381,4.827,14.174l3.079,3.243c-10.505,12.501-19.613,26.161-27.028,40.649
			C41.578,210.821,33.62,243.949,33.62,278.62c0,57.797,22.508,112.134,63.376,153.004C137.865,472.492,192.203,495,250,495
			s112.135-22.508,153.003-63.376c40.869-40.869,63.376-95.207,63.376-153.004S443.872,166.486,403.003,125.617z"/>
	</g>
</g>
<path class="st4" d="M209.783,15.833c0-2.762,2.239-5,5-5h5.833V5c0-2.762,2.239-5,5-5s5,2.238,5,5v5.833h5.833c2.761,0,5,2.238,5,5
	s-2.239,5-5,5h-5.833v5.833c0,2.762-2.239,5-5,5s-5-2.238-5-5v-5.833h-5.833C212.022,20.833,209.783,18.595,209.783,15.833z
	 M263.551,20.833h5.833v5.833c0,2.762,2.239,5,5,5s5-2.238,5-5v-5.833h5.833c2.761,0,5-2.238,5-5s-2.239-5-5-5h-5.833V5
	c0-2.762-2.239-5-5-5s-5,2.238-5,5v5.833h-5.833c-2.761,0-5,2.238-5,5S260.79,20.833,263.551,20.833z M417.23,490H316.099
	c33.771-10.516,64.716-29.116,90.44-54.841c41.813-41.813,64.84-97.406,64.84-156.539c0-59.132-23.027-114.725-64.84-156.538
	c-26.229-26.23-58.676-45.553-93.832-55.879c-2.65-0.779-5.428,0.738-6.207,3.388s0.739,5.429,3.388,6.206
	c33.554,9.856,64.53,28.307,89.579,53.355c39.924,39.925,61.912,93.007,61.912,149.468c0,56.462-21.987,109.544-61.912,149.469
	C359.543,468.013,306.461,490,250,490s-109.543-21.987-149.468-61.911c-39.924-39.925-61.912-93.007-61.912-149.469
	c0-33.872,7.773-66.232,23.104-96.185c7.2-14.066,16.083-27.427,26.405-39.71c1.636-1.948,1.55-4.813-0.202-6.659l-3.079-3.243
	c-2.648-2.79-3.955-6.56-3.495-10.085c0.692-5.309,4.682-9.478,9.928-10.374l39.365-6.728c3.97-0.678,7.999,0.661,10.769,3.58
	c2.772,2.921,3.9,7.01,3.017,10.938l-8.765,38.966c-0.978,4.348-4.254,7.784-8.551,8.97c-1.044,0.288-2.121,0.435-3.201,0.435
	c-3.289,0-6.474-1.368-8.738-3.753l-3.676-3.873c-0.992-1.044-2.397-1.612-3.824-1.554c-1.439,0.057-2.784,0.731-3.689,1.852
	c-24.21,29.927-38.337,66.209-40.854,104.926c-0.148,2.275,1.263,4.363,3.429,5.074c2.166,0.711,4.54-0.132,5.77-2.053
	c7.314-11.417,15.72-22.136,24.983-31.859c23.088-24.236,50.678-42.18,82.004-53.329c17.276-6.149,35.477-10.028,54.098-11.528
	c2.597-0.209,4.599-2.378,4.599-4.983v-0.093c0.005-2.929,0.992-5.675,2.781-7.732c4.134-4.754,10.857-5.703,15.987-2.254
	l29.054,19.532c4.046,2.721,6.044,7.583,5.09,12.388c-0.613,3.086-2.598,5.946-5.447,7.848l-28.799,19.216
	c-1.986,1.326-4.299,2.026-6.688,2.026c-2.567,0-5.028-0.805-7.118-2.327c-3.092-2.252-4.935-6.044-4.927-10.143l0.007-4.328
	c0.002-1.408-0.589-2.753-1.629-3.702c-1.041-0.949-2.438-1.415-3.835-1.285c-44.683,4.169-86.494,24.523-117.731,57.313
	C99.184,270.256,86.8,289.09,77.955,309.884c-5.819,13.679-5.8,29.288,0.05,42.817l0.082,0.19c0.691,1.604,2.169,2.731,3.899,2.974
	c1.73,0.239,3.46-0.436,4.565-1.789c3.454-4.228,7.075-8.334,10.765-12.208c23.09-24.238,50.68-42.181,82.004-53.33
	c17.277-6.149,35.478-10.028,54.099-11.528c2.597-0.209,4.599-2.378,4.599-4.983v-0.102c0.009-5.324,3.455-9.954,8.575-11.52
	c3.403-1.039,7.337-0.379,10.528,1.767l28.719,19.308c4.046,2.721,6.044,7.583,5.09,12.388c-0.613,3.086-2.598,5.946-5.447,7.848
	l-28.799,19.216c-1.986,1.326-4.299,2.026-6.688,2.026c-2.567,0-5.028-0.805-7.118-2.327c-3.092-2.252-4.935-6.044-4.927-10.143
	l0.007-4.33c0.002-1.408-0.589-2.753-1.629-3.702c-1.041-0.948-2.429-1.414-3.835-1.285c-44.68,4.168-86.491,24.523-117.731,57.317
	c-6.492,6.815-12.542,14.21-17.981,21.977c-1.208,1.726-1.206,4.024,0.008,5.747c8.996,12.773,19.579,24.414,31.456,34.599
	c1.694,1.451,4.144,1.606,6.007,0.379c29.577-19.497,63.866-31.276,99.161-34.066c2.597-0.205,4.602-2.399,4.606-5.005
	c0.009-5.324,3.456-9.953,8.575-11.52c3.403-1.038,7.337-0.379,10.528,1.767l28.719,19.309c4.046,2.721,6.044,7.582,5.09,12.387
	c-0.613,3.086-2.598,5.946-5.447,7.848l-28.799,19.217c-1.986,1.326-4.299,2.026-6.688,2.026c-2.567,0-5.028-0.805-7.117-2.326
	c-3.093-2.254-4.936-6.046-4.928-10.144l0.007-4.292c0.002-1.409-0.59-2.755-1.631-3.704c-1.042-0.948-2.432-1.408-3.839-1.282
	c-25.743,2.431-50.23,10.004-72.781,22.509c-1.59,0.882-2.577,2.559-2.575,4.377s0.99,3.493,2.582,4.372
	c27.535,15.215,58.743,23.246,90.301,23.245c0.241,0,0.484,0,0.725-0.001c102.578-0.398,186.262-84.177,186.546-186.757
	c0.139-50.051-19.298-97.183-54.729-132.713c-35.434-35.531-82.509-55.1-132.555-55.1c-16.128,0-32.14,2.052-47.592,6.098
	c-3.111,0.813-6.354,0.372-9.132-1.255c-2.778-1.625-4.757-4.234-5.572-7.347c-0.815-3.113-0.37-6.357,1.255-9.135
	c1.625-2.777,4.233-4.756,7.347-5.571c17.438-4.567,35.504-6.884,53.695-6.884c6.592,0,13.235,0.304,19.747,0.902
	c2.741,0.259,5.184-1.771,5.437-4.521c0.253-2.75-1.771-5.184-4.521-5.437c-6.814-0.627-13.766-0.945-20.663-0.945
	c-19.045,0-37.963,2.426-56.229,7.21c-5.697,1.492-10.472,5.112-13.445,10.196c-2.974,5.083-3.79,11.021-2.297,16.717
	s5.113,10.472,10.197,13.445c5.084,2.974,11.021,3.789,16.716,2.297c14.625-3.83,29.784-5.771,45.058-5.771
	c47.37,0,91.93,18.524,125.474,52.161c33.542,33.635,51.942,78.249,51.811,125.624C427.016,376.222,347.8,455.527,250.7,455.904
	c-26.873,0.098-53.596-5.968-77.716-17.632c17.335-8.438,35.776-13.911,55-16.317c0.363,6.798,3.67,13.063,9.007,16.951
	c3.811,2.776,8.308,4.244,13.005,4.244c4.371,0,8.603-1.282,12.238-3.708l28.799-19.217c5.042-3.365,8.579-8.547,9.705-14.219
	c1.742-8.771-1.916-17.655-9.319-22.633l-28.72-19.309c-5.75-3.866-12.688-4.974-19.032-3.03
	c-7.833,2.396-13.521,8.735-15.164,16.483c-34.253,3.361-67.471,14.8-96.55,33.247c-9.237-8.261-17.599-17.467-24.924-27.441
	c4.606-6.31,9.633-12.332,14.974-17.939c28.302-29.71,65.758-48.635,105.979-53.664c0.352,6.814,3.661,13.099,9.009,16.992
	c3.811,2.776,8.308,4.244,13.005,4.244c4.371,0,8.603-1.282,12.238-3.708l28.799-19.216c5.042-3.365,8.579-8.547,9.705-14.219
	c1.742-8.771-1.916-17.656-9.319-22.634l-28.72-19.308c-5.75-3.865-12.687-4.973-19.032-3.03c-7.87,2.406-13.573,8.791-15.187,16.57
	c-18.052,1.786-35.697,5.718-52.515,11.704c-32.813,11.679-61.711,30.471-85.891,55.854c-1.83,1.921-3.643,3.896-5.429,5.913
	c-1.984-8.963-1.148-18.487,2.51-27.086c8.374-19.686,20.098-37.517,34.846-52.997c28.299-29.707,65.756-48.631,105.979-53.661
	c0.352,6.814,3.662,13.097,9.009,16.99c3.811,2.776,8.308,4.244,13.005,4.244c4.371,0,8.603-1.282,12.238-3.708l28.799-19.216
	c5.042-3.365,8.579-8.547,9.705-14.219c1.742-8.771-1.916-17.656-9.319-22.634l-29.054-19.532
	c-9.225-6.203-21.742-4.487-29.114,3.992c-2.4,2.761-4.034,6.131-4.778,9.773c-18.049,1.786-35.692,5.718-52.507,11.703
	c-32.814,11.68-61.712,30.472-85.891,55.853c-5.151,5.407-10.048,11.106-14.655,17.053c4.808-27.476,15.967-53.191,32.821-75.456
	c4.122,4.162,9.808,6.541,15.674,6.541c1.979,0,3.95-0.268,5.86-0.794c7.863-2.17,13.859-8.46,15.648-16.416l8.764-38.965
	c1.617-7.188-0.446-14.672-5.52-20.018c-5.07-5.341-12.434-7.791-19.703-6.553l-39.367,6.728c-9.6,1.64-16.898,9.251-18.16,18.939
	c-0.858,6.579,1.387,13.235,6.159,18.262l0.034,0.036c-9.601,11.897-17.936,24.708-24.808,38.135
	c-16.06,31.376-24.203,65.271-24.203,100.741c0,59.133,23.027,114.726,64.84,156.539c25.724,25.725,56.669,44.325,90.44,54.841
	H82.77c-2.761,0-5,2.238-5,5s2.239,5,5,5H417.23c2.761,0,5-2.238,5-5S419.992,490,417.23,490z M56.978,490h-6.236
	c-2.761,0-5,2.238-5,5s2.239,5,5,5h6.236c2.761,0,5-2.238,5-5S59.739,490,56.978,490z M449.258,490h-6.236c-2.761,0-5,2.238-5,5
	s2.239,5,5,5h6.236c2.761,0,5-2.238,5-5S452.02,490,449.258,490z M284.828,64.953c-0.501,2.715,1.294,5.323,4.009,5.824
	c1.386,0.256,2.768,0.525,4.146,0.809c0.339,0.069,0.676,0.103,1.009,0.103c2.325,0,4.408-1.631,4.893-3.997
	c0.554-2.705-1.189-5.348-3.895-5.902c-1.443-0.295-2.889-0.578-4.339-0.846C287.937,60.442,285.33,62.237,284.828,64.953z"/>
</svg>